<mxfile host="app.diagrams.net" agent="Mozilla/5.0 (X11; Linux x86_64; rv:131.0) Gecko/20100101 Firefox/131.0" version="26.0.8">
  <diagram name="Page-1" id="PEJCmU_ScqLvsMgCiJTC">
    <mxGraphModel dx="1434" dy="773" grid="1" gridSize="10" guides="1" tooltips="1" connect="1" arrows="1" fold="1" page="1" pageScale="1" pageWidth="827" pageHeight="1169" math="0" shadow="0">
      <root>
        <mxCell id="0" />
        <mxCell id="1" parent="0" />
        <mxCell id="0UJu3n_bSsPIPNdZF9dM-1" value="Device" style="swimlane;fontStyle=1;align=center;verticalAlign=top;childLayout=stackLayout;horizontal=1;startSize=26;horizontalStack=0;resizeParent=1;resizeParentMax=0;resizeLast=0;collapsible=1;marginBottom=0;whiteSpace=wrap;html=1;fillColor=#dae8fc;strokeColor=#6c8ebf;" vertex="1" parent="1">
          <mxGeometry x="334" y="50" width="186" height="250" as="geometry" />
        </mxCell>
        <mxCell id="0UJu3n_bSsPIPNdZF9dM-2" value="&lt;div&gt;+ ID&lt;/div&gt;&lt;div&gt;+ sendQueue&lt;br&gt;&lt;/div&gt;&lt;div&gt;+ recieveQueue&lt;/div&gt;&lt;div&gt;+ encryptionKeys&lt;br&gt;+ radioInterface&lt;br&gt;&lt;/div&gt;" style="text;strokeColor=#6c8ebf;fillColor=#dae8fc;align=left;verticalAlign=top;spacingLeft=4;spacingRight=4;overflow=hidden;rotatable=0;points=[[0,0.5],[1,0.5]];portConstraint=eastwest;whiteSpace=wrap;html=1;" vertex="1" parent="0UJu3n_bSsPIPNdZF9dM-1">
          <mxGeometry y="26" width="186" height="94" as="geometry" />
        </mxCell>
        <mxCell id="0UJu3n_bSsPIPNdZF9dM-3" value="" style="line;strokeWidth=1;fillColor=#dae8fc;align=left;verticalAlign=middle;spacingTop=-1;spacingLeft=3;spacingRight=3;rotatable=0;labelPosition=right;points=[];portConstraint=eastwest;strokeColor=#6c8ebf;" vertex="1" parent="0UJu3n_bSsPIPNdZF9dM-1">
          <mxGeometry y="120" width="186" height="8" as="geometry" />
        </mxCell>
        <mxCell id="0UJu3n_bSsPIPNdZF9dM-4" value="+ setSecret(pre-key,salt)&lt;br&gt;&lt;div&gt;+ encrypt(message)&lt;/div&gt;&lt;div&gt;+ decrypt(message)&lt;/div&gt;&lt;div&gt;+ send(message)&lt;/div&gt;&lt;div&gt;+sendAck(message_id)&lt;/div&gt;&lt;div&gt;+manage_outgoing_packets()&lt;br&gt;+end()&lt;br&gt;&lt;/div&gt;" style="text;strokeColor=#6c8ebf;fillColor=#dae8fc;align=left;verticalAlign=top;spacingLeft=4;spacingRight=4;overflow=hidden;rotatable=0;points=[[0,0.5],[1,0.5]];portConstraint=eastwest;whiteSpace=wrap;html=1;" vertex="1" parent="0UJu3n_bSsPIPNdZF9dM-1">
          <mxGeometry y="128" width="186" height="122" as="geometry" />
        </mxCell>
        <mxCell id="0UJu3n_bSsPIPNdZF9dM-9" style="edgeStyle=orthogonalEdgeStyle;rounded=0;orthogonalLoop=1;jettySize=auto;html=1;exitX=0.75;exitY=0;exitDx=0;exitDy=0;entryX=0.25;entryY=1;entryDx=0;entryDy=0;" edge="1" parent="1" source="0UJu3n_bSsPIPNdZF9dM-5" target="0UJu3n_bSsPIPNdZF9dM-1">
          <mxGeometry relative="1" as="geometry" />
        </mxCell>
        <mxCell id="0UJu3n_bSsPIPNdZF9dM-5" value="GCS" style="swimlane;fontStyle=1;align=center;verticalAlign=top;childLayout=stackLayout;horizontal=1;startSize=26;horizontalStack=0;resizeParent=1;resizeParentMax=0;resizeLast=0;collapsible=1;marginBottom=0;whiteSpace=wrap;html=1;fillColor=#d5e8d4;strokeColor=#82b366;" vertex="1" parent="1">
          <mxGeometry x="154" y="370" width="180" height="140" as="geometry" />
        </mxCell>
        <mxCell id="0UJu3n_bSsPIPNdZF9dM-6" value="+ idMap&lt;br&gt;+ portMap" style="text;strokeColor=#82b366;fillColor=#d5e8d4;align=left;verticalAlign=top;spacingLeft=4;spacingRight=4;overflow=hidden;rotatable=0;points=[[0,0.5],[1,0.5]];portConstraint=eastwest;whiteSpace=wrap;html=1;" vertex="1" parent="0UJu3n_bSsPIPNdZF9dM-5">
          <mxGeometry y="26" width="180" height="54" as="geometry" />
        </mxCell>
        <mxCell id="0UJu3n_bSsPIPNdZF9dM-7" value="" style="line;strokeWidth=1;fillColor=none;align=left;verticalAlign=middle;spacingTop=-1;spacingLeft=3;spacingRight=3;rotatable=0;labelPosition=right;points=[];portConstraint=eastwest;strokeColor=inherit;" vertex="1" parent="0UJu3n_bSsPIPNdZF9dM-5">
          <mxGeometry y="80" width="180" height="8" as="geometry" />
        </mxCell>
        <mxCell id="0UJu3n_bSsPIPNdZF9dM-8" value="+ manageIncomingPackets()&lt;br&gt;+ newClient(msg)&lt;div&gt;&lt;br/&gt;&lt;/div&gt;" style="text;strokeColor=#82b366;fillColor=#d5e8d4;align=left;verticalAlign=top;spacingLeft=4;spacingRight=4;overflow=hidden;rotatable=0;points=[[0,0.5],[1,0.5]];portConstraint=eastwest;whiteSpace=wrap;html=1;" vertex="1" parent="0UJu3n_bSsPIPNdZF9dM-5">
          <mxGeometry y="88" width="180" height="52" as="geometry" />
        </mxCell>
        <mxCell id="0UJu3n_bSsPIPNdZF9dM-14" style="edgeStyle=orthogonalEdgeStyle;rounded=0;orthogonalLoop=1;jettySize=auto;html=1;exitX=0.25;exitY=0;exitDx=0;exitDy=0;entryX=0.75;entryY=1;entryDx=0;entryDy=0;" edge="1" parent="1" source="0UJu3n_bSsPIPNdZF9dM-10" target="0UJu3n_bSsPIPNdZF9dM-1">
          <mxGeometry relative="1" as="geometry" />
        </mxCell>
        <mxCell id="0UJu3n_bSsPIPNdZF9dM-10" value="GCS" style="swimlane;fontStyle=1;align=center;verticalAlign=top;childLayout=stackLayout;horizontal=1;startSize=26;horizontalStack=0;resizeParent=1;resizeParentMax=0;resizeLast=0;collapsible=1;marginBottom=0;whiteSpace=wrap;html=1;fillColor=#ffe6cc;strokeColor=#d79b00;" vertex="1" parent="1">
          <mxGeometry x="520" y="370" width="180" height="140" as="geometry" />
        </mxCell>
        <mxCell id="0UJu3n_bSsPIPNdZF9dM-11" value="+ gcs&lt;br&gt;+ active" style="text;strokeColor=#d79b00;fillColor=#ffe6cc;align=left;verticalAlign=top;spacingLeft=4;spacingRight=4;overflow=hidden;rotatable=0;points=[[0,0.5],[1,0.5]];portConstraint=eastwest;whiteSpace=wrap;html=1;" vertex="1" parent="0UJu3n_bSsPIPNdZF9dM-10">
          <mxGeometry y="26" width="180" height="54" as="geometry" />
        </mxCell>
        <mxCell id="0UJu3n_bSsPIPNdZF9dM-12" value="" style="line;strokeWidth=1;fillColor=none;align=left;verticalAlign=middle;spacingTop=-1;spacingLeft=3;spacingRight=3;rotatable=0;labelPosition=right;points=[];portConstraint=eastwest;strokeColor=inherit;" vertex="1" parent="0UJu3n_bSsPIPNdZF9dM-10">
          <mxGeometry y="80" width="180" height="8" as="geometry" />
        </mxCell>
        <mxCell id="0UJu3n_bSsPIPNdZF9dM-13" value="+ manageIncomingPackets()&lt;br&gt;+ broadcast()&lt;br&gt;+ handshake challenge(msg)&lt;br&gt;&lt;div&gt;&lt;br&gt;&lt;/div&gt;" style="text;strokeColor=#d79b00;fillColor=#ffe6cc;align=left;verticalAlign=top;spacingLeft=4;spacingRight=4;overflow=hidden;rotatable=0;points=[[0,0.5],[1,0.5]];portConstraint=eastwest;whiteSpace=wrap;html=1;" vertex="1" parent="0UJu3n_bSsPIPNdZF9dM-10">
          <mxGeometry y="88" width="180" height="52" as="geometry" />
        </mxCell>
        <mxCell id="0UJu3n_bSsPIPNdZF9dM-15" value="Radio" style="swimlane;fontStyle=1;align=center;verticalAlign=top;childLayout=stackLayout;horizontal=1;startSize=26;horizontalStack=0;resizeParent=1;resizeParentMax=0;resizeLast=0;collapsible=1;marginBottom=0;whiteSpace=wrap;html=1;fillColor=#f8cecc;strokeColor=#b85450;" vertex="1" parent="1">
          <mxGeometry x="641" y="50" width="186" height="240" as="geometry" />
        </mxCell>
        <mxCell id="0UJu3n_bSsPIPNdZF9dM-16" value="+ interface&lt;br&gt;&lt;div&gt;+ timers&lt;/div&gt;&lt;div&gt;+ messageID&lt;br&gt;&lt;br&gt;&lt;/div&gt;" style="text;strokeColor=#b85450;fillColor=#f8cecc;align=left;verticalAlign=top;spacingLeft=4;spacingRight=4;overflow=hidden;rotatable=0;points=[[0,0.5],[1,0.5]];portConstraint=eastwest;whiteSpace=wrap;html=1;" vertex="1" parent="0UJu3n_bSsPIPNdZF9dM-15">
          <mxGeometry y="26" width="186" height="94" as="geometry" />
        </mxCell>
        <mxCell id="0UJu3n_bSsPIPNdZF9dM-17" value="" style="line;strokeWidth=1;fillColor=#dae8fc;align=left;verticalAlign=middle;spacingTop=-1;spacingLeft=3;spacingRight=3;rotatable=0;labelPosition=right;points=[];portConstraint=eastwest;strokeColor=#6c8ebf;" vertex="1" parent="0UJu3n_bSsPIPNdZF9dM-15">
          <mxGeometry y="120" width="186" height="8" as="geometry" />
        </mxCell>
        <mxCell id="0UJu3n_bSsPIPNdZF9dM-18" value="&lt;div&gt;+ send()&lt;/div&gt;&lt;div&gt;+ resend()&lt;br&gt;+ timer()&lt;br&gt;+ end()&lt;br&gt;&lt;/div&gt;&lt;div&gt;+ wireless_reciever()&lt;br&gt;+ stop_filter()&lt;br&gt;+ input_handler()&lt;br&gt;&lt;/div&gt;" style="text;strokeColor=#b85450;fillColor=#f8cecc;align=left;verticalAlign=top;spacingLeft=4;spacingRight=4;overflow=hidden;rotatable=0;points=[[0,0.5],[1,0.5]];portConstraint=eastwest;whiteSpace=wrap;html=1;" vertex="1" parent="0UJu3n_bSsPIPNdZF9dM-15">
          <mxGeometry y="128" width="186" height="112" as="geometry" />
        </mxCell>
        <mxCell id="0UJu3n_bSsPIPNdZF9dM-19" value="" style="endArrow=diamondThin;endFill=1;endSize=24;html=1;rounded=0;exitX=0;exitY=0.5;exitDx=0;exitDy=0;entryX=1;entryY=0.766;entryDx=0;entryDy=0;entryPerimeter=0;" edge="1" parent="1" source="0UJu3n_bSsPIPNdZF9dM-16" target="0UJu3n_bSsPIPNdZF9dM-2">
          <mxGeometry width="160" relative="1" as="geometry">
            <mxPoint x="820" y="430" as="sourcePoint" />
            <mxPoint x="980" y="430" as="targetPoint" />
          </mxGeometry>
        </mxCell>
      </root>
    </mxGraphModel>
  </diagram>
</mxfile>
